<svg id="logo" xmlns="http://www.w3.org/2000/svg" viewBox="0 0 522.6 162.91"><title>logo</title><rect x="191.91" y="20.04" width="138.63" height="142.86" style="fill:#54f"/><path d="M352.77,104.16l11.33-31.7s4.52-9.06,18.11-11.32S506.75,29.44,522.6,0c0,0-11.32,38.49-49.81,61.14,0,0-24.91,13.59-49.82,15.85S384.48,77,352.77,104.16Z" style="fill:#54f"/><path d="M343,128.29l14.16-21.42s5-5.88,15.21-5.06,95.89-.61,112.89-19.52c0,0-15.44,26.46-47.5,36.17,0,0-20.55,5.49-39,2.59S371,114,343,128.29Z" style="fill:#54f"/><path d="M337.39,141.11l12.61-12s4.18-3.12,10.81-1,63.33,14.23,77.43,4.35c0,0-14.22,15.09-36.85,16.61,0,0-14.39.49-26.09-4.23S358.05,135.94,337.39,141.11Z" style="fill:#54f"/><path d="M169.83,104.16l-11.32-31.7S154,63.4,140.39,61.14,15.85,29.44,0,0C0,0,11.32,38.49,49.82,61.14c0,0,24.91,13.59,49.81,15.85S138.13,77,169.83,104.16Z" style="fill:#54f"/><path d="M179.59,128.29l-14.16-21.42s-5-5.88-15.21-5.06S54.34,101.2,37.34,82.29c0,0,15.44,26.46,47.5,36.17,0,0,20.54,5.49,39,2.59S151.58,114,179.59,128.29Z" style="fill:#54f"/><path d="M185.21,141.11l-12.61-12s-4.18-3.12-10.8-1-63.34,14.23-77.43,4.35c0,0,14.21,15.09,36.84,16.61,0,0,14.39.49,26.09-4.23S164.55,135.94,185.21,141.11Z" style="fill:#54f"/></svg>